<svg width="254" height="335" viewBox="0 0 254 335" fill="none" xmlns="http://www.w3.org/2000/svg">
<path id="Vector 1" d="M37 4C37 46.0682 37 88.1594 37 130.222C37 176.918 37 223.544 37 270.222C37 290.804 37 311.425 37 332" stroke="#E92323" stroke-width="5" stroke-linecap="round"/>
<path id="Vector 2" d="M39.6658 4C31.3749 3.90266 56.3013 3.82882 64.5878 3.72963C102.495 3.27586 141.535 3.09664 179.944 3.07037C195.903 3.05946 212.2 3 228 3" stroke="#33D63A" stroke-width="5" stroke-linecap="round"/>
<path id="Vector 3" d="M39 71.7115L115.893 4" stroke="#2C1CEB" stroke-width="5" stroke-linecap="round"/>
<path id="Vector 4" d="M182 4V59" stroke="#FDE407" stroke-width="3" stroke-linecap="round"/>
<path id="Ellipse 1" d="M191.5 82.5C191.5 89.1122 190.348 95.0273 188.546 99.2332C187.643 101.339 186.607 102.947 185.533 104.007C184.466 105.061 183.443 105.5 182.5 105.5C181.557 105.5 180.534 105.061 179.467 104.007C178.393 102.947 177.357 101.339 176.454 99.2332C174.652 95.0273 173.5 89.1122 173.5 82.5C173.5 75.8878 174.652 69.9727 176.454 65.7668C177.357 63.6611 178.393 62.0529 179.467 60.993C180.534 59.9393 181.557 59.5 182.5 59.5C183.443 59.5 184.466 59.9393 185.533 60.993C186.607 62.0529 187.643 63.6611 188.546 65.7668C190.348 69.9727 191.5 75.8878 191.5 82.5Z" stroke="#FDE407" stroke-width="3"/>
<path id="Vector 5" d="M184.109 61C173.69 61 166.487 63.5484 162.443 74.9954C160.189 81.3766 160.279 93.286 164.85 98.9479C170.105 105.456 173.303 103.816 180.473 103.816C186.9 103.816 197.078 102.765 200.026 95.0757C202.975 87.3865 201.746 84.8972 201.746 78.5339C196.5 61.5513 187.899 61.5513 177.034 61.5513" stroke="#EC0CFF" stroke-width="3" stroke-linecap="round"/>
<path id="Vector 6" d="M182.647 107C167.043 107 149.303 130.507 149.035 160.532C148.891 176.555 148.732 189.834 158.843 192.869C164.539 194.578 170.436 193.82 176.196 193.82C180.187 193.82 184.406 194.85 188.117 191.985C195.827 186.035 202 177.206 202 160.736C202 155.468 201.742 150.173 201.66 144.907C201.321 140.627 200.555 137.842 199.963 134.377C197.42 119.497 191.696 107 182.987 107" stroke="#03FFF0" stroke-width="3" stroke-linecap="round"/>
<path id="Vector 7" d="M168.421 111.497C157.904 121.619 149.753 135.027 140.425 146.305C137.661 149.647 132.743 156.123 130.106 159.609C126.363 164.557 124.677 167.403 123 172.687" stroke="#FD7A00" stroke-width="3" stroke-linecap="round"/>
<path id="Vector 8" d="M190.82 111C199.107 120.985 206.662 133.669 212.348 145.298C216.508 153.807 222.201 160.811 223.917 170.352" stroke="#AD5262" stroke-width="3" stroke-linecap="round"/>
<path id="Vector 9" d="M180 194C180.528 197.054 182.936 199.926 183.818 203.091C186.037 211.048 188.629 218.489 191.525 226.091C196.563 239.314 204.419 252.188 208 266" stroke="#360467" stroke-width="3" stroke-linecap="round"/>
<path id="Vector 10" d="M163 194C162.596 198.447 159.481 203.511 157.889 207.667C154.117 217.516 149.8 227.498 144.778 236.778C139.303 246.893 133.035 256.929 128 267" stroke="#08511C" stroke-width="3" stroke-linecap="round"/>
<path id="Vector 11" d="M173.965 92.7354C174.073 90.9085 177.603 89.8667 178.961 89.2554C181.102 88.2918 183.692 88.281 185.999 88.281C187.223 88.281 189.135 89.1355 190 90C191.5 92 190.5 90 190.5 90.5" stroke="#AD5262" stroke-width="3" stroke-linecap="round"/>
<path id="Vector 12" d="M188.999 76.588C189.932 76.7952 190.337 79.5426 190.67 80.2073" stroke="#AD5262" stroke-width="3" stroke-linecap="round"/>
<path id="Vector 13" d="M187.886 80.4857C188.227 78.7789 191.345 75.9915 192.897 75.4744" stroke="#AD5262" stroke-width="3" stroke-linecap="round"/>
<path id="Vector 14" d="M175.079 75.7528C175.079 77.2441 176.301 78.5833 176.749 79.9289" stroke="#AD5262" stroke-width="3" stroke-linecap="round"/>
<path id="Vector 15" d="M172.295 81.5993C172.436 80.8945 173.388 80.4054 173.842 79.8979C174.721 78.9127 175.482 77.761 176.471 76.8819C177.42 76.0381 178.523 75.591 179.533 74.9176" stroke="#AD5262" stroke-width="3" stroke-linecap="round"/>
<path id="Vector 16" d="M2 332L252 332" stroke="#DAC5C5" stroke-width="3" stroke-linecap="round"/>
</svg>
